PathFileType	4	(X/Y/Z)	E:\Studenten\Marcel_BSc\Ayumi_25_09_2024\25-09-2024\static_00.trc
DataRate	CameraRate	NumFrames	NumMarkers	Units	OrigDataRate	OrigDataStartFrame	OrigNumFrames
200.0	200.0	4	62	mm	200.0	37	295	
Frame#	Time	LASI			RASI			RSACR			LSACR			USACR			LBAR			RBAR			RHEE			RMT1			RMT5			RMT2			LHEE			LMT1			LMT5			LMT2			LMMAL			LMFC			LLFC			LLMAL			LTIB4			LTIB2			LTIB3			LTIB1			RMMAL			RMFC			RLFC			RLMAL			RTIB1			RTIB2			RTIB3			RTHI1			RTHI4			RTHI3			RTHI2			LTHI1			LTHI4			LTHI3			LTHI2			FHD			LBHD			RBHD			C7			T10			CLAV			LSHO			RSHO			LRAD			LUL			LRFIN			RRAD			RUL			RUFIN			RLEP			RMEP			LLEP			LMEP			LDUPA			LMUPA			LUUPA			RDUPA			RUUPA			RMUPA			
		X1	Y1	Z1	X2	Y2	Z2	X3	Y3	Z3	X4	Y4	Z4	X5	Y5	Z5	X6	Y6	Z6	X7	Y7	Z7	X8	Y8	Z8	X9	Y9	Z9	X10	Y10	Z10	X11	Y11	Z11	X12	Y12	Z12	X13	Y13	Z13	X14	Y14	Z14	X15	Y15	Z15	X16	Y16	Z16	X17	Y17	Z17	X18	Y18	Z18	X19	Y19	Z19	X20	Y20	Z20	X21	Y21	Z21	X22	Y22	Z22	X23	Y23	Z23	X24	Y24	Z24	X25	Y25	Z25	X26	Y26	Z26	X27	Y27	Z27	X28	Y28	Z28	X29	Y29	Z29	X30	Y30	Z30	X31	Y31	Z31	X32	Y32	Z32	X33	Y33	Z33	X34	Y34	Z34	X35	Y35	Z35	X36	Y36	Z36	X37	Y37	Z37	X38	Y38	Z38	X39	Y39	Z39	X40	Y40	Z40	X41	Y41	Z41	X42	Y42	Z42	X43	Y43	Z43	X44	Y44	Z44	X45	Y45	Z45	X46	Y46	Z46	X47	Y47	Z47	X48	Y48	Z48	X49	Y49	Z49	X50	Y50	Z50	X51	Y51	Z51	X52	Y52	Z52	X53	Y53	Z53	X54	Y54	Z54	X55	Y55	Z55	X56	Y56	Z56	X57	Y57	Z57	X58	Y58	Z58	X59	Y59	Z59	X60	Y60	Z60	X61	Y61	Z61	X62	Y62	Z62	
37	0.18	134.64917	918.14642	-762.31812	130.0755	918.65942	-984.60138	309.9494	950.43921	-912.64355	309.21567	953.68719	-852.74683	298.302	966.81311	-882.59589	1270.8002	26.321121	346.5032	1226.4093	26.3041	-1876.9515	323.06	39.812527	-1019.658	128.15042	43.441933	-1043.322	165.06294	34.811481	-1113.6625	140.17569	42.689045	-1079.9698	326.26825	45.80299	-745.13043	134.38864	46.334473	-736.45599	170.01202	33.381718	-662.78394	143.17435	45.916893	-698.03528	276.7027	72.94313	-778.66711	233.45787	456.92792	-829.12012	219.99675	454.04333	-721.44342	278.81918	69.133171	-700.9472	290.60699	209.60974	-691.52844	314.31689	270.87488	-691.52728	263.79285	268.18686	-684.47906	301.73358	314.20764	-687.54437	275.18674	68.349319	-994.11786	235.88417	446.59457	-935.43427	221.11319	461.40027	-1041.3297	284.69791	72.226646	-1068.6135	257.42838	319.32217	-1082.7496	307.88165	313.99982	-1077.2432	276.83728	256.17044	-1081.4137	242.38826	783.9696	-1060.1315	243.27411	635.13574	-1064.8489	192.00099	637.13495	-1066.7014	219.71085	697.25903	-1070.214	239.58287	779.03284	-698.96832	237.42278	646.64362	-695.42572	186.82716	637.61371	-693.13373	201.34386	701.32739	-689.42395	130.62059	1593.1338	-775.23395	241.39217	1575.9802	-786.2511	252.93132	1571.4336	-909.7337	262.92618	1391.4705	-857.67291	286.29346	1007.7705	-877.68744	140.34314	1328.7391	-872.68744	244.14108	1380.9153	-724.7149	236.38322	1397.1523	-986.6734	163.89813	1357.4192	-222.56633	204.51689	1353.0718	-222.07532	150.40852	1336.881	-130.65872	240.96518	1389.5732	-1500.5421	287.862	1383.481	-1499.6658	235.24312	1391.8423	-1590.7032	293.20938	1330.2875	-1271.2087	255.01633	1296.66	-1271.7463	220.07152	1299.9491	-453.85385	179.21289	1277.5349	-466.72372	236.31442	1353.7745	-505.77444	200.44823	1371.369	-536.35913	237.59991	1362.3716	-584.9541	266.034	1382.7363	-1205.6471	256.71823	1384.4004	-1143.9358	215.80128	1385.6664	-1212.2155
38	0.185	134.63448	918.15125	-762.32214	130.05675	918.65533	-984.60052	309.93069	950.43945	-912.65125	309.1944	953.6853	-852.75659	298.27463	966.80792	-882.60724	1270.7931	26.324053	346.4957	1226.4318	26.29347	-1876.9712	323.05072	39.82021	-1019.6494	128.14517	43.447819	-1043.318	165.061	34.817528	-1113.6681	140.1748	42.685562	-1079.9651	326.26822	45.803585	-745.14697	134.39014	46.338428	-736.4566	169.99384	33.40155	-662.78094	143.17566	45.917782	-698.03528	276.71509	72.948654	-778.65704	233.44559	456.92737	-829.12634	219.99432	454.04459	-721.45068	278.81558	69.131882	-700.9469	290.60056	209.61858	-691.5296	314.25677	271.19907	-691.34668	263.7836	268.1843	-684.48895	301.73764	314.21393	-687.54968	275.19037	68.349922	-994.11298	235.87346	446.59085	-935.44055	221.10587	461.39703	-1041.3278	284.69647	72.229256	-1068.6259	257.42914	319.32935	-1082.7585	307.88214	314.00479	-1077.2368	276.83752	256.18185	-1081.4084	242.36722	783.96979	-1060.1396	243.27174	635.15527	-1064.8551	191.99467	637.12238	-1066.7058	219.81256	697.12646	-1070.1511	239.58679	779.04065	-698.97211	237.40982	646.6629	-695.43201	186.79248	637.60236	-693.14142	201.3335	701.32037	-689.43396	130.59036	1593.1036	-775.22192	241.33907	1575.9868	-786.24127	252.88466	1571.4456	-909.72375	262.91418	1391.4753	-857.66748	286.27188	1007.7702	-877.7002	140.3239	1328.7432	-872.68579	244.12665	1380.9414	-724.70654	236.36209	1397.1534	-986.66632	163.88116	1357.594	-222.50575	204.49083	1353.0886	-222.08412	150.37946	1336.9246	-130.65369	240.91779	1389.616	-1500.5431	287.82718	1383.5358	-1499.6503	235.19931	1391.8929	-1590.7026	293.18408	1330.318	-1271.212	254.9971	1296.6884	-1271.7509	220.06906	1299.9576	-453.85574	179.20145	1277.5493	-466.72995	236.30299	1353.7826	-505.76688	200.44334	1371.3696	-536.36102	237.5779	1362.4053	-584.94781	266.00647	1382.7521	-1205.6556	256.69656	1384.4087	-1143.932	215.81119	1385.5925	-1212.1527
39	0.19	134.60921	918.1543	-762.32605	130.0475	918.65118	-984.6084	309.9064	950.44788	-912.64807	309.17688	953.69171	-852.75543	298.24512	966.80945	-882.60828	1270.7974	26.33419	346.50714	1226.4249	26.299864	-1876.9663	323.0574	39.817924	-1019.6627	128.15204	43.459202	-1043.3301	165.0585	34.821228	-1113.6758	140.17447	42.690487	-1079.9679	326.26843	45.807678	-745.14258	134.39294	46.344852	-736.45532	169.9866	33.398418	-662.77826	143.17674	45.921692	-698.03491	276.72119	72.954094	-778.65796	233.42529	456.93207	-829.13831	219.98404	454.05441	-721.45947	278.81277	69.141785	-700.95142	290.60764	209.62302	-691.52899	314.25177	271.19165	-691.3465	263.79559	268.20074	-684.48566	301.92462	314.29401	-687.35486	275.18704	68.356026	-994.10229	235.86801	446.59393	-935.43665	221.10654	461.39166	-1041.3302	284.69968	72.231766	-1068.6191	257.43073	319.33264	-1082.7456	307.87326	314.01495	-1077.2346	276.85706	256.1712	-1081.4099	242.35336	783.97607	-1060.1487	243.28386	635.14746	-1064.8364	191.97318	637.1167	-1066.683	219.81801	697.12836	-1070.1516	239.56017	779.03827	-698.97748	237.40039	646.66119	-695.42554	186.77725	637.60028	-693.13306	201.31029	701.32294	-689.42664	130.53123	1593.1018	-775.2171	241.26294	1575.985	-786.23462	252.83282	1571.4635	-909.71808	262.89261	1391.4811	-857.67542	286.24518	1007.7711	-877.71338	140.32381	1328.7483	-872.69733	244.12344	1380.9545	-724.70917	236.34685	1397.1512	-986.66125	163.85809	1357.6305	-222.52432	204.46181	1353.1176	-222.0983	150.36362	1336.9686	-130.67175	240.87009	1389.6663	-1500.5372	287.78247	1383.5828	-1499.6416	235.16495	1391.9459	-1590.7006	293.16599	1330.3392	-1271.197	254.96548	1296.7167	-1271.7651	220.05206	1299.9733	-453.86188	179.18745	1277.5656	-466.72678	236.29419	1353.781	-505.77069	200.44113	1371.3767	-536.37054	237.56665	1362.4166	-584.95233	265.98071	1382.7725	-1205.6342	256.67084	1384.4187	-1143.9169	215.778	1385.6125	-1212.1494
40	0.195	134.58736	918.14801	-762.33008	130.02452	918.65295	-984.61542	309.88138	950.43866	-912.6557	309.14676	953.68848	-852.7558	298.23187	966.81696	-882.60718	1270.8024	26.336075	346.49158	1226.4347	26.292572	-1876.972	323.05182	39.820248	-1019.6703	128.14906	43.45961	-1043.3279	165.04774	34.817551	-1113.6702	140.17967	42.685802	-1079.963	326.27426	45.801361	-745.15234	134.38637	46.342819	-736.45477	169.97403	33.417084	-662.77618	143.1709	45.922081	-698.02954	276.71539	72.954445	-778.6543	233.4135	456.93787	-829.14044	219.96321	454.04413	-721.46454	278.82495	69.144844	-700.95081	290.60083	209.62337	-691.52728	314.29175	270.9425	-691.53912	263.78271	268.19702	-684.49402	301.91757	314.29242	-687.36548	275.18924	68.355148	-994.10449	235.8504	446.5918	-935.43304	221.08609	461.40253	-1041.3351	284.7001	72.231911	-1068.6099	257.41809	319.32687	-1082.7579	307.87405	314.01468	-1077.234	276.84973	256.17514	-1081.4183	242.33559	783.97559	-1060.155	243.25723	635.15277	-1064.8645	191.96959	637.11713	-1066.683	219.77631	697.13055	-1070.1719	239.54091	779.04114	-698.97437	237.40771	646.66962	-695.43915	186.75554	637.60504	-693.12762	201.31006	701.31897	-689.44727	130.48697	1593.0938	-775.20837	241.21382	1575.9928	-786.23413	252.78291	1571.474	-909.7074	262.86987	1391.4795	-857.66931	286.22491	1007.7721	-877.71802	140.31883	1328.7386	-872.68964	244.13611	1380.9799	-724.70319	236.3215	1397.1523	-986.66138	163.83794	1357.675	-222.53633	204.47002	1353.1652	-222.09337	150.34781	1337.0273	-130.66747	240.83214	1389.7172	-1500.5376	287.73907	1383.6327	-1499.6249	235.12526	1391.9907	-1590.6958	293.15454	1330.3723	-1271.2107	254.94038	1296.7366	-1271.7666	220.04144	1299.9784	-453.8566	179.1848	1277.5795	-466.72601	236.28464	1353.7787	-505.77908	200.4039	1371.3923	-536.37823	237.62932	1362.3881	-584.91876	265.96036	1382.7822	-1205.6343	256.6564	1384.4219	-1143.9172	215.71832	1385.7242	-1212.2059
